<svg width="1200" height="400" viewBox="0 0 1200 400" fill="none" xmlns="http://www.w3.org/2000/svg">
  <title>XXD Panel 054</title>
  <desc>Compress a source photograph into one dominant selective-memory visual and exactly six unequal stickers in matte gouache, cut-paper, Risograph, and screen-print texture.</desc>
  <defs><clipPath id="f"><rect width="1200" height="400" rx="30"/></clipPath><filter id="s" x="-30%" y="-30%" width="160%" height="160%"><feGaussianBlur stdDeviation="12"/></filter></defs>
  <g clip-path="url(#f)">
    <rect width="1200" height="400" fill="#F7F3EA"/><circle cx="1080" cy="38" r="180" fill="#FFFFFF" fill-opacity=".34"/><circle cx="760" cy="390" r="200" fill="#4AA1AE" fill-opacity=".1"/>
    <g transform="translate(58 42)"><rect width="224" height="34" rx="8" fill="#172D31"/><text x="16" y="22" fill="white" font-family="Arial,sans-serif" font-size="13" font-weight="900" letter-spacing="2">🦁 XXD / IMAGE SKILL</text><text y="112" fill="#172D31" font-family="Arial,sans-serif" font-size="68" font-weight="900" letter-spacing="-3">PANEL <tspan fill="#EF805E">054</tspan></text><text x="2" y="151" fill="#4AA1AE" font-family="Arial,sans-serif" font-size="13" font-weight="900" letter-spacing=".32">SELECTIVE MEMORY · MAIN VISUAL · SIX STICKERS · MATTE PRINT · AIRY BLUE</text><text x="2" y="198" fill="#172D31" font-family="sans-serif" font-size="18" font-weight="800">把一段记忆拆成主视觉与六枚不等大的碎片</text><text x="2" y="230" fill="#3B555A" font-family="sans-serif" font-size="14" font-weight="700">一つの記憶を主役と不均等な六つの断片に分ける</text><text x="2" y="260" fill="#3B555A" font-family="sans-serif" font-size="14" font-weight="700">하나의 기억을 주인공과 서로 다른 여섯 조각으로 나누기</text><text x="2" y="291" fill="#3B555A" font-family="Arial,sans-serif" font-size="13" font-weight="700">تقسيم ذكرى واحدة إلى مشهد رئيس وست شظايا غير متساوية</text></g>
    <g transform="translate(58 334)"><rect width="105" height="34" rx="8" fill="#172D31"/><text x="52.5" y="22" text-anchor="middle" fill="white" font-family="Arial,sans-serif" font-size="11" font-weight="900">SOURCE-BOUND</text><rect x="117" width="88" height="34" rx="8" fill="#EF805E"/><text x="161" y="22" text-anchor="middle" fill="white" font-family="Arial,sans-serif" font-size="11" font-weight="900">4 MODES</text><rect x="217" width="132" height="34" rx="8" fill="#4AA1AE"/><text x="283" y="22" text-anchor="middle" fill="white" font-family="Arial,sans-serif" font-size="11" font-weight="900">WALLPAPER PACK</text></g>
    <g transform="translate(790 42)"><path d="M76 95C120 62 201 62 239 101C275 138 259 206 214 231C168 257 88 242 59 196C37 161 45 119 76 95Z" fill="#8FBFD0" stroke="#FFF" stroke-width="10"/><path d="M106 119C137 101 180 104 202 130C224 156 211 194 181 207C150 220 110 205 95 177C84 156 87 132 106 119Z" fill="#F6D5D4"/><g fill="#DDECEF" stroke="#FFF" stroke-width="8"><circle cx="297" cy="78" r="31"/><rect x="280" y="139" width="63" height="47" rx="16" transform="rotate(9 280 139)"/><circle cx="300" cy="245" r="38"/><rect x="19" y="72" width="57" height="49" rx="18" transform="rotate(-12 19 72)"/><circle cx="43" cy="242" r="29"/><rect x="244" y="283" width="72" height="43" rx="17" transform="rotate(-8 244 283)"/></g><path d="M80 292C131 271 177 278 222 299" stroke="#718F83" stroke-width="15" stroke-linecap="round" opacity=".65"/></g>
  </g>
</svg>
